<svg id="Laag_1" data-name="Laag 1" xmlns="http://www.w3.org/2000/svg" viewBox="0 0 1366 768"><defs><style>.cls-1{fill:#fcbf24;}.cls-2{fill:none;stroke-width:4px;}.cls-2,.cls-3{stroke:#000;stroke-miterlimit:10;}.cls-3{stroke-width:2px;}</style></defs><polygon class="cls-1" points="586.35 176 510.67 268 779.67 268 855.35 176 779.67 84 510.67 84 586.35 176"/><path class="cls-1" d="M165.89,268h269l75.68-92L434.89,84h-269Z"/><polygon class="cls-1" points="931 176 855.32 268 1124.32 268 1200 176 1124.32 84 855.32 84 931 176"/><polygon class="cls-1" points="586.4 592.77 510.72 684.77 779.72 684.77 855.4 592.77 779.72 500.77 510.72 500.77 586.4 592.77"/><polygon class="cls-1" points="241.68 593 166 685 435 685 510.68 593 435 501 166 501 241.68 593"/><polygon class="cls-1" points="1199.05 501 1199.05 685 854.04 685 929.72 593 854.04 501 1199.05 501"/><path class="cls-2" d="M1224.17,172.16c17.38,14.48,63,56.28,58.83,107.84-3.68,45.19-43.8,75-58.83,86.16C1047.07,497.76,339.6,248,160.83,399,144,413.23,98.71,451.47,101,502c2.08,45.86,42.26,78.4,59.83,91"/><path class="cls-3" d="M155.17,567.57l24.26,26.6-26.6,24.26Z"/></svg>