<svg id="Laag_1" data-name="Laag 1" xmlns="http://www.w3.org/2000/svg" xmlns:xlink="http://www.w3.org/1999/xlink" viewBox="0 0 374 768"><defs><style>.cls-1{fill:#356318;}.cls-2{fill:#d7ff96;}.cls-3{fill:#e4ffb8;}.cls-4{fill:#f8ffeb;}.cls-5{fill:url(#Naamloos_verloop_4);}.cls-6{fill:url(#Naamloos_verloop_12);}.cls-7{fill:#e5e08c;}.cls-8{fill:#487533;}.cls-9{fill:#8ab242;}.cls-10{fill:#853d51;}.cls-11,.cls-23{fill:#fff4e3;}.cls-11{opacity:0.1;}.cls-12{fill:#ffd6f1;}.cls-13{fill:url(#Naamloos_verloop_5);}.cls-14{fill:#733d1e;}.cls-15{fill:#f7d565;}.cls-16{fill:#fff;opacity:0.3;}.cls-17{fill:#cf482a;}.cls-18{fill:#879e1c;}.cls-19{fill:url(#Naamloos_verloop_6);}.cls-20{fill:url(#Naamloos_verloop_6-2);}.cls-21{fill:#8f311e;}.cls-22{fill:url(#Naamloos_verloop_6-3);}.cls-24{fill:url(#Naamloos_verloop_6-4);}.cls-25{fill:#e57b62;}.cls-26{fill:#40771c;}.cls-27{fill:#6da317;}.cls-28{fill:url(#Naamloos_verloop_3);}.cls-29{fill:#548a3c;}.cls-30,.cls-31{fill:none;stroke-miterlimit:10;stroke-width:3px;}.cls-30{stroke:#cd3202;}.cls-31{stroke:#e83902;}</style><linearGradient id="Naamloos_verloop_4" x1="146.66" y1="534.29" x2="219.95" y2="534.29" gradientUnits="userSpaceOnUse"><stop offset="0" stop-color="#666"/><stop offset="1" stop-color="#b3b3b3"/></linearGradient><linearGradient id="Naamloos_verloop_12" x1="103.9" y1="358.57" x2="252.66" y2="358.57" gradientUnits="userSpaceOnUse"><stop offset="0" stop-color="#8cc63f"/><stop offset="1" stop-color="#009245"/></linearGradient><linearGradient id="Naamloos_verloop_5" x1="73.26" y1="254.15" x2="188.37" y2="254.15" gradientUnits="userSpaceOnUse"><stop offset="0" stop-color="#fbb03b"/><stop offset="1" stop-color="#fcee21"/></linearGradient><linearGradient id="Naamloos_verloop_6" x1="197.62" y1="198.62" x2="269.89" y2="198.62" gradientTransform="translate(366.51 -77.91) rotate(75.29)" gradientUnits="userSpaceOnUse"><stop offset="0" stop-color="#ed1c24"/><stop offset="1" stop-color="#c1272d"/></linearGradient><linearGradient id="Naamloos_verloop_6-2" x1="235.92" y1="208.67" x2="308.19" y2="208.67" gradientTransform="translate(404.8 -107.46) rotate(75.29)" xlink:href="#Naamloos_verloop_6"/><linearGradient id="Naamloos_verloop_6-3" x1="243.09" y1="204.62" x2="262.22" y2="204.62" gradientTransform="matrix(1, 0, 0, 1, 0, 0)" xlink:href="#Naamloos_verloop_6"/><linearGradient id="Naamloos_verloop_6-4" x1="30.98" y1="145.83" x2="102.57" y2="145.83" gradientTransform="matrix(1, 0, 0, 1, 0, 0)" xlink:href="#Naamloos_verloop_6"/><linearGradient id="Naamloos_verloop_3" x1="141.25" y1="141.39" x2="202.7" y2="141.39" gradientUnits="userSpaceOnUse"><stop offset="0" stop-color="#f15a24"/><stop offset="0.98" stop-color="#f7931e"/></linearGradient></defs><ellipse class="cls-1" cx="238.67" cy="100.76" rx="48.82" ry="31.19" transform="translate(4.29 211.15) rotate(-48.11)"/><ellipse class="cls-2" cx="237.04" cy="99.06" rx="45.84" ry="27.22" transform="translate(4.29 207.82) rotate(-47.73)"/><ellipse class="cls-3" cx="235.95" cy="97.92" rx="20.95" ry="12.53" transform="translate(4.84 206.77) rotate(-47.76)"/><path class="cls-4" d="M244.28,97.87c-2.38,1.35-4.77,1.57-5.32.5s.94-3,3.33-4.38,4.77-1.57,5.32-.5S246.67,96.52,244.28,97.87Z"/><path class="cls-4" d="M235.23,107.79c-.6,1.79-1.68,3-2.41,2.75s-.84-1.94-.24-3.72,1.68-3,2.42-2.75S235.83,106,235.23,107.79Z"/><path class="cls-4" d="M235.52,98.9c-1.18,1.76-2.72,2.76-3.44,2.24s-.35-2.39.83-4.15,2.71-2.76,3.43-2.23S236.69,97.14,235.52,98.9Z"/><path class="cls-4" d="M238.65,90.39c-1.67.47-3.19.24-3.38-.51s1-1.74,2.68-2.21,3.19-.24,3.38.51S240.32,89.92,238.65,90.39Z"/><path class="cls-4" d="M240,104.6c-1.59-.73-2.64-1.9-2.34-2.61s1.83-.7,3.42,0,2.63,1.9,2.33,2.61S241.53,105.33,240,104.6Z"/><path class="cls-4" d="M226.81,105.59c1.72-.25,3.19.16,3.3.93s-1.2,1.6-2.92,1.86-3.19-.16-3.3-.93S225.1,105.85,226.81,105.59Z"/><path class="cls-4" d="M226.24,99.57c1.64.6,2.76,1.68,2.52,2.42s-1.78.83-3.41.23-2.76-1.69-2.51-2.42S224.61,99,226.24,99.57Z"/><path class="cls-4" d="M228.72,92.92c.7-1.66,1.81-2.75,2.49-2.44s.67,1.92,0,3.58-1.81,2.75-2.49,2.44S228,94.58,228.72,92.92Z"/><path class="cls-4" d="M244.34,87c.69-1.66,1.81-2.76,2.49-2.44s.67,1.91,0,3.57-1.82,2.75-2.5,2.44S243.64,88.65,244.34,87Z"/><path class="cls-5" d="M207.4,474.75,194,483.19l6.35,175.69c.06,1.78.11,3.56.11,5.33a126.87,126.87,0,0,1-7.86,44.55c-2,5.39-5.69,8.09-9.32,8.09s-7.28-2.7-9.32-8.09a128,128,0,0,1-7.75-49.88l6.35-175.69-13.37-8.44A26.94,26.94,0,0,1,147,447.55l.81-4.86L152.63,414l2-11.79,7.79-46.72c.87-5.26,8.56-4.8,8.8.52.63,14.21,1.5,28.7,2.54,42q.47,5.73,1,11.12c1,10.41,2.05,19.69,3.23,27,1.64,10.19,3.47,16.47,5.39,16.47s4-7.3,5.78-18.94c1.16-7.81,2.24-17.56,3.19-28.38.32-3.73.64-7.6.93-11.55.91-12.08,1.67-25,2.22-37.68.23-5.32,7.93-5.78,8.8-.52L210,390l1.82,10.94,4.44,26.69,3.34,20A26.94,26.94,0,0,1,207.4,474.75Z"/><path class="cls-6" d="M201.67,403.09a5.8,5.8,0,0,1,6.37-4.27c16.38,2,31.24-5.27,34.89-18.07,2.17-7.65-.1-15.74-5.48-22.49a5.75,5.75,0,0,1,.72-7.85c13.15-11.89,18.31-28.07,11.44-39.44-7.34-12.17-26-14.72-43.72-6.82a5.73,5.73,0,0,1-7-1.94,25,25,0,0,0-7.2-6.77c-14.89-9.2-36.66-1-48.61,18.36a53.43,53.43,0,0,0-4.49,9.07,5.75,5.75,0,0,1-5.74,3.63,27.51,27.51,0,0,0-14.74,51.56,26.52,26.52,0,0,0,4.49,2,27.15,27.15,0,1,0,40.93,35.66,5.7,5.7,0,0,1,7.2-1.35c7.26,4.18,15.17,5,21.56,1.54C197,413.28,200.2,408.69,201.67,403.09Z"/><path class="cls-7" d="M98.58,386.29c26.37-13.09,90.61-42.75,127.32-54.8,0,0-74.15,41.92-125,60.34A3,3,0,0,1,98.58,386.29Z"/><polygon class="cls-7" points="189.9 346.88 185.69 323.43 183.23 351.4 189.9 346.88"/><polygon class="cls-7" points="154.17 365.24 149.96 341.79 147.5 369.77 154.17 365.24"/><polygon class="cls-7" points="191.06 348.78 210.62 362.38 184.17 352.96 191.06 348.78"/><polygon class="cls-7" points="156 367.11 175.56 380.71 149.11 371.29 156 367.11"/><path class="cls-8" d="M58.83,200.52a12.72,12.72,0,0,0-17.71-3.14l14.56,20.85A12.72,12.72,0,0,0,58.83,200.52Z"/><path class="cls-9" d="M205.1,84.56a11,11,0,0,0-14.93,4.32L209.42,99.5A11,11,0,0,0,205.1,84.56Z"/><path class="cls-9" d="M291.73,338.36a11,11,0,0,0-3.06,15.25l18.3-12.2A11,11,0,0,0,291.73,338.36Z"/><path class="cls-10" d="M175.36,289.26c-42.92,17-70.22,46.25-62.17,66.61,5.81,14.68,28.15,20.17,56.2,15.75A163.8,163.8,0,0,0,204.11,362a156.87,156.87,0,0,0,38.95-21.82c18.9-14.84,28.39-31.67,23.19-44.8C258.19,275,218.26,272.29,175.36,289.26Zm64.09,43.88c-9.9,8.21-23.07,16-38.06,21.93a149.32,149.32,0,0,1-34.88,9.27c-22.58,3-40.58-1-44.84-11.82-6.32-16,19.52-41.79,56.41-56.38s73.38-13.43,79.7,2.54C261.53,308.17,254,321.12,239.45,333.14Z"/><path class="cls-11" d="M243.06,340.13A156.87,156.87,0,0,1,204.11,362a163.8,163.8,0,0,1-34.72,9.67l-2.88-7.28a149.32,149.32,0,0,0,34.88-9.27c15-5.93,28.16-13.72,38.06-21.93Z"/><path class="cls-12" d="M201.38,355.07c-42.91,17-82.84,14.31-90.9-6.07s19.24-49.64,62.15-66.61,82.85-14.31,90.91,6.06S244.3,338.09,201.38,355.07Zm-26-65.81c-36.89,14.6-62.71,40.42-56.4,56.39s42.82,17.13,79.71,2.54,62.72-40.41,56.4-56.38S212.24,274.67,175.35,289.26Z"/><path class="cls-13" d="M94.21,196.6c-29.79,29.78-26,68.15,0,94.16s64.37,29.78,94.16,0Z"/><ellipse class="cls-14" cx="94.21" cy="290.76" rx="2.3" ry="6.81" transform="translate(-178 151.77) rotate(-45)"/><ellipse class="cls-15" cx="141.12" cy="243.85" rx="12.1" ry="66.58" transform="translate(-131.09 171.2) rotate(-45)"/><ellipse class="cls-16" cx="141.45" cy="243.9" rx="8.73" ry="58.59" transform="translate(-131.04 171.46) rotate(-45)"/><ellipse class="cls-17" cx="248.78" cy="177.07" rx="24.67" ry="19.21" transform="translate(14.34 372.73) rotate(-75.29)"/><ellipse class="cls-17" cx="269.58" cy="182.53" rx="24.67" ry="19.21" transform="translate(24.58 396.92) rotate(-75.29)"/><path class="cls-18" d="M248.43,163l9.09-7a9.48,9.48,0,0,0,3.42-5.17h0a5.14,5.14,0,0,0-2.46-5.81l-2.78-1.5a2.06,2.06,0,0,1-.65-3h0a2,2,0,0,1,2.51-.64h0a25.08,25.08,0,0,1,13.78,19.57l1.2,9.85Z"/><ellipse class="cls-19" cx="233.76" cy="198.62" rx="45.44" ry="35.39" transform="translate(-17.72 374.28) rotate(-75.29)"/><ellipse class="cls-20" cx="272.06" cy="208.67" rx="45.44" ry="35.39" transform="matrix(0.25, -0.97, 0.97, 0.25, 1.14, 418.82)"/><ellipse class="cls-21" cx="238.71" cy="199.92" rx="33.69" ry="26.24" transform="matrix(0.25, -0.97, 0.97, 0.25, -15.28, 380.04)"/><ellipse class="cls-21" cx="267.1" cy="207.37" rx="33.69" ry="26.24" transform="translate(-1.3 413.06) rotate(-75.29)"/><path class="cls-22" d="M256.94,205.74c-4.73,18-10.47,32.09-12.84,31.47s-.45-15.72,4.28-33.71,10.47-32.08,12.83-31.46S261.66,187.75,256.94,205.74Z"/><path class="cls-23" d="M273.59,182.67c-2.48,9.43-10.4,15.51-17.71,13.59s-11.22-11.11-8.75-20.53,9.32-11.37,16.62-9.45S276.06,173.25,273.59,182.67Z"/><path class="cls-24" d="M31,161.87A39.8,39.8,0,0,0,94.55,114Z"/><path class="cls-25" d="M71.44,131.37a10.86,10.86,0,0,1-17.35,13.08l-8.81,6.64a21.89,21.89,0,1,0,35-26.36Z"/><path class="cls-21" d="M76.23,152.68c1.32,1.74,1.72,3.66.89,4.28s-2.55-.29-3.87-2-1.71-3.66-.89-4.28S74.92,150.93,76.23,152.68Z"/><path class="cls-21" d="M65.92,155.57c0,2.18-.78,4-1.81,4s-1.89-1.74-1.93-3.92.78-4,1.81-4S65.88,153.38,65.92,155.57Z"/><path class="cls-21" d="M52.37,153.82c-1.62,1.46-3.5,2-4.19,1.25s.07-2.57,1.69-4,3.5-2,4.19-1.25S54,152.36,52.37,153.82Z"/><path class="cls-21" d="M79.72,143.29c2.09.64,4,.35,4.33-.63s-1.15-2.3-3.24-2.94-4-.35-4.33.64S77.63,142.66,79.72,143.29Z"/><path class="cls-21" d="M80.85,132.35c1.85-1.16,2.91-2.81,2.36-3.68s-2.49-.64-4.34.51S76,132,76.51,132.86,79,133.51,80.85,132.35Z"/><path class="cls-26" d="M136.8,73.87c6.31,14.51,9.33,27.18,6.75,28.31s-9.79-9.74-16.1-24.25-9.32-27.18-6.74-28.3S130.49,59.36,136.8,73.87Z"/><path class="cls-26" d="M138.9,73.2c3.23,15.49,8.08,27.58,10.84,27s2.37-13.6-.86-29.09-8.09-27.58-10.84-27S135.67,57.71,138.9,73.2Z"/><path class="cls-27" d="M142.86,72.49c4.8,15.08,6.51,28,3.83,28.84s-8.75-10.67-13.54-25.75-6.51-28-3.82-28.85S138.07,57.41,142.86,72.49Z"/><path class="cls-27" d="M133.2,75.2c8.69,13.22,13.82,25.19,11.47,26.74s-11.3-7.92-20-21.15-13.82-25.2-11.47-26.74S124.52,62,133.2,75.2Z"/><path class="cls-27" d="M142.6,72.21c.55,15.81,3.27,28.55,6.08,28.45s4.65-13,4.11-28.8-3.27-28.56-6.08-28.46S142.05,56.39,142.6,72.21Z"/><path class="cls-28" d="M181.61,122.58c11.51,36.22,9.39,69.22-4.73,73.71S142,175.06,130.45,138.85,128.18,92,142.3,87.55,170.09,86.37,181.61,122.58Z"/><path class="cls-29" d="M170.64,255.49a11,11,0,0,0-7.11,13.83l20.94-6.71A11,11,0,0,0,170.64,255.49Z"/><path class="cls-8" d="M123.72,205c-5.6,0-5.61,8.7,0,8.7S129.34,205,123.72,205Z"/><path class="cls-8" d="M105,40.71l-1.45-1.46a4.36,4.36,0,0,0-6.16,6.16l1.46,1.45A4.35,4.35,0,0,0,105,40.71Z"/><path class="cls-8" d="M299.16,234.12l-1.45-1.45a4.35,4.35,0,0,0-6.15,6.16l1.45,1.45a4.35,4.35,0,1,0,6.15-6.16Z"/><path class="cls-8" d="M131.41,298.05,130,296.6a4.36,4.36,0,1,0-6.16,6.16l1.45,1.45a4.36,4.36,0,0,0,6.16-6.16Z"/><path class="cls-8" d="M135.64,409.91a4.43,4.43,0,0,0-4.35,4.36v1.45a4.35,4.35,0,0,0,8.7,0v-1.45A4.41,4.41,0,0,0,135.64,409.91Z"/><path class="cls-8" d="M225.9,302.18c-5.6,0-5.61,8.71,0,8.71S231.51,302.18,225.9,302.18Z"/><path class="cls-8" d="M143.88,181.06c-5.61,0-5.62,8.71,0,8.71S149.49,181.06,143.88,181.06Z"/><path class="cls-8" d="M291.15,209.33c-5.6,0-5.61,8.71,0,8.71S296.77,209.33,291.15,209.33Z"/><path class="cls-8" d="M49.49,363.45c-5.61,0-5.62,8.71,0,8.71S55.1,363.45,49.49,363.45Z"/><path class="cls-30" d="M285.73,308A16.32,16.32,0,0,0,257.35,292c-.22.36-.43.73-.63,1.1a16.32,16.32,0,1,0,3.21,31.29A16.31,16.31,0,1,0,285.73,308Z"/><path class="cls-31" d="M284.24,308.12a14.88,14.88,0,0,0-25.87-14.63c-.21.33-.39.66-.57,1A14.88,14.88,0,1,0,260.72,323a14.87,14.87,0,1,0,23.52-14.9Z"/></svg>